<mxfile host="Electron" modified="2023-09-21T02:32:45.006Z" agent="Mozilla/5.0 (X11; Linux x86_64) AppleWebKit/537.36 (KHTML, like Gecko) draw.io/21.7.5 Chrome/114.0.5735.289 Electron/25.8.1 Safari/537.36" etag="le-GUGQ75cKr80rzXACD" version="21.7.5" type="device" pages="2">
  <diagram id="VK8YIoU0Tkf_7aTmhNJv" name="HiveOT Overview">
    <mxGraphModel dx="1185" dy="675" grid="1" gridSize="5" guides="1" tooltips="1" connect="1" arrows="1" fold="1" page="1" pageScale="1" pageWidth="1169" pageHeight="827" background="#E6E6E6" math="0" shadow="0">
      <root>
        <mxCell id="0" />
        <mxCell id="1" style="locked=1;" parent="0" />
        <mxCell id="23Uv_tyZsOAz5xgCa8Ph-275" value="&lt;h3 style=&quot;font-size: 14px;&quot;&gt;Hive Of Things&lt;/h3&gt;" style="rounded=1;whiteSpace=wrap;html=1;fontSize=14;verticalAlign=top;strokeColor=#A3A3A3;fillColor=#F7F7F7;gradientColor=#ffffff;fontColor=#003366;arcSize=1;movable=1;resizable=1;rotatable=1;noLabel=0;align=left;spacingLeft=20;deletable=1;editable=1;connectable=1;" parent="1" vertex="1">
          <mxGeometry x="20" y="40" width="780" height="490" as="geometry" />
        </mxCell>
        <mxCell id="23Uv_tyZsOAz5xgCa8Ph-2" value="&lt;h3 style=&quot;font-size: 14px; line-height: 120%;&quot;&gt;Hive Hub&lt;/h3&gt;" style="rounded=1;whiteSpace=wrap;html=1;fontSize=14;verticalAlign=bottom;strokeColor=#A3A3A3;fillColor=#CDD0D1;gradientColor=#ffffff;fontColor=#003366;arcSize=3;glass=0;shadow=0;movable=1;resizable=1;rotatable=1;deletable=1;editable=1;connectable=0;spacing=0;labelPosition=center;verticalLabelPosition=top;align=center;horizontal=1;recursiveResize=0;" parent="1" vertex="1">
          <mxGeometry x="240" y="165" width="410" height="340" as="geometry" />
        </mxCell>
        <mxCell id="8O2uawOGH-FbcPCOpxYq-6" value="Components" parent="0" />
        <mxCell id="8O2uawOGH-FbcPCOpxYq-22" value="Core" style="rounded=1;whiteSpace=wrap;html=1;shadow=0;glass=0;dashed=1;sketch=0;fontSize=10;fontColor=#666666;fillColor=none;verticalAlign=top;fontStyle=2;connectable=0;recursiveResize=0;dashPattern=1 4;" parent="8O2uawOGH-FbcPCOpxYq-6" vertex="1">
          <mxGeometry x="355.5" y="265" width="185" height="225" as="geometry" />
        </mxCell>
        <mxCell id="23Uv_tyZsOAz5xgCa8Ph-1" style="edgeStyle=orthogonalEdgeStyle;rounded=1;orthogonalLoop=1;jettySize=auto;html=1;fontSize=6;fontColor=#333333;startArrow=none;startFill=0;endArrow=classicThin;endFill=1;strokeColor=#485A7D;strokeWidth=1;exitX=1;exitY=0.5;exitDx=0;exitDy=0;dashed=1;entryX=0.478;entryY=1.036;entryDx=0;entryDy=0;entryPerimeter=0;startSize=3;endSize=3;" parent="8O2uawOGH-FbcPCOpxYq-6" source="23Uv_tyZsOAz5xgCa8Ph-241" target="23Uv_tyZsOAz5xgCa8Ph-4" edge="1">
          <mxGeometry relative="1" as="geometry">
            <mxPoint x="605.0500000000004" y="228" as="sourcePoint" />
            <mxPoint x="684.7" y="200" as="targetPoint" />
            <Array as="points">
              <mxPoint x="719" y="213" />
              <mxPoint x="719" y="213" />
            </Array>
          </mxGeometry>
        </mxCell>
        <mxCell id="23Uv_tyZsOAz5xgCa8Ph-3" style="edgeStyle=orthogonalEdgeStyle;rounded=1;orthogonalLoop=1;jettySize=auto;html=1;entryX=0.5;entryY=1;entryDx=0;entryDy=0;dashed=1;fontSize=6;fontColor=#333333;startArrow=none;startFill=0;endArrow=openThin;endFill=0;strokeColor=#485A7D;strokeWidth=1;" parent="8O2uawOGH-FbcPCOpxYq-6" source="23Uv_tyZsOAz5xgCa8Ph-4" target="23Uv_tyZsOAz5xgCa8Ph-85" edge="1">
          <mxGeometry relative="1" as="geometry" />
        </mxCell>
        <mxCell id="23Uv_tyZsOAz5xgCa8Ph-4" value="Internet firewall" style="aspect=fixed;html=1;points=[];align=center;image;fontSize=9;image=img/lib/mscae/Azure_Firewall.svg;" parent="8O2uawOGH-FbcPCOpxYq-6" vertex="1">
          <mxGeometry x="694.7" y="150" width="50" height="50" as="geometry" />
        </mxCell>
        <mxCell id="23Uv_tyZsOAz5xgCa8Ph-5" value="&lt;font style=&quot;font-size: 9px&quot;&gt;Admin/User&lt;/font&gt;" style="aspect=fixed;html=1;points=[];align=center;image;fontSize=9;image=img/lib/azure2/management_governance/User_Privacy.svg;" parent="8O2uawOGH-FbcPCOpxYq-6" vertex="1">
          <mxGeometry x="754.7" y="372.73" width="28.24" height="30" as="geometry" />
        </mxCell>
        <mxCell id="23Uv_tyZsOAz5xgCa8Ph-41" style="edgeStyle=orthogonalEdgeStyle;rounded=1;orthogonalLoop=1;jettySize=auto;html=1;entryX=0;entryY=0.5;entryDx=0;entryDy=0;entryPerimeter=0;endArrow=none;endFill=0;startArrow=classicThin;startFill=1;exitX=1;exitY=0.5;exitDx=0;exitDy=0;strokeColor=#696969;endSize=2;startSize=2;" parent="8O2uawOGH-FbcPCOpxYq-6" source="23Uv_tyZsOAz5xgCa8Ph-271" target="23Uv_tyZsOAz5xgCa8Ph-93" edge="1">
          <mxGeometry relative="1" as="geometry" />
        </mxCell>
        <mxCell id="23Uv_tyZsOAz5xgCa8Ph-77" style="edgeStyle=orthogonalEdgeStyle;orthogonalLoop=1;jettySize=auto;html=1;fontSize=11;fontColor=default;startArrow=none;startFill=0;endArrow=classic;endFill=1;strokeColor=#696969;strokeWidth=1;entryX=1;entryY=0.5;entryDx=0;entryDy=0;rounded=1;exitX=0.008;exitY=0.489;exitDx=0;exitDy=0;exitPerimeter=0;startSize=2;endSize=2;" parent="8O2uawOGH-FbcPCOpxYq-6" source="23Uv_tyZsOAz5xgCa8Ph-80" target="23Uv_tyZsOAz5xgCa8Ph-245" edge="1">
          <mxGeometry relative="1" as="geometry">
            <mxPoint x="569.7" y="425" as="targetPoint" />
            <Array as="points">
              <mxPoint x="684.7" y="411" />
              <mxPoint x="684.7" y="350" />
            </Array>
          </mxGeometry>
        </mxCell>
        <mxCell id="23Uv_tyZsOAz5xgCa8Ph-80" value="" style="verticalLabelPosition=bottom;verticalAlign=top;html=1;shadow=0;dashed=0;strokeWidth=1;shape=mxgraph.android.phone2;strokeColor=#c0c0c0;fontSize=5;fontColor=#333333;fillColor=none;gradientColor=none;" parent="8O2uawOGH-FbcPCOpxYq-6" vertex="1">
          <mxGeometry x="715.5300000000001" y="395" width="20" height="32.5" as="geometry" />
        </mxCell>
        <mxCell id="23Uv_tyZsOAz5xgCa8Ph-81" style="rounded=1;orthogonalLoop=1;jettySize=auto;html=1;fontSize=11;fontColor=default;startArrow=none;startFill=0;endArrow=classic;endFill=0;strokeColor=#696969;strokeWidth=1;entryX=1;entryY=0.5;entryDx=0;entryDy=0;edgeStyle=orthogonalEdgeStyle;exitX=0;exitY=0.5;exitDx=0;exitDy=0;exitPerimeter=0;startSize=2;endSize=2;" parent="8O2uawOGH-FbcPCOpxYq-6" source="23Uv_tyZsOAz5xgCa8Ph-83" target="23Uv_tyZsOAz5xgCa8Ph-245" edge="1">
          <mxGeometry relative="1" as="geometry">
            <mxPoint x="624.7" y="325" as="targetPoint" />
            <Array as="points">
              <mxPoint x="702.7" y="350" />
            </Array>
          </mxGeometry>
        </mxCell>
        <mxCell id="23Uv_tyZsOAz5xgCa8Ph-83" value="&lt;font style=&quot;font-size: 9px;&quot;&gt;Web Browser&lt;/font&gt;" style="verticalAlign=top;verticalLabelPosition=bottom;labelPosition=center;align=center;html=1;outlineConnect=0;fillColor=#CCCCCC;strokeColor=#6881B3;gradientColor=none;gradientDirection=north;strokeWidth=2;shape=mxgraph.networks.virtual_pc;fontSize=6;fontColor=#333333;" parent="8O2uawOGH-FbcPCOpxYq-6" vertex="1">
          <mxGeometry x="702.88" y="333.75" width="40" height="34.98" as="geometry" />
        </mxCell>
        <mxCell id="23Uv_tyZsOAz5xgCa8Ph-84" value="&lt;span style=&quot;color: rgb(72, 90, 125); font-family: helvetica; font-size: 9px; font-style: normal; font-weight: 400; letter-spacing: normal; text-indent: 0px; text-transform: none; word-spacing: 0px; background-color: rgb(255, 255, 255); display: inline; float: none;&quot;&gt;Mobile App&lt;/span&gt;" style="text;whiteSpace=wrap;html=1;fontSize=9;fontColor=#333333;align=center;verticalAlign=middle;" parent="8O2uawOGH-FbcPCOpxYq-6" vertex="1">
          <mxGeometry x="705.5300000000001" y="433.74" width="40" height="10" as="geometry" />
        </mxCell>
        <mxCell id="23Uv_tyZsOAz5xgCa8Ph-85" value="&lt;font style=&quot;font-size: 8px;&quot;&gt;Internet Based HiveOT Hub&lt;/font&gt;" style="rounded=1;whiteSpace=wrap;html=1;fontSize=10;fontColor=rgb(0, 0, 0);strokeColor=#A3A3A3;fillColor=none;gradientColor=none;align=center;verticalAlign=top;dashed=1;" parent="8O2uawOGH-FbcPCOpxYq-6" vertex="1">
          <mxGeometry x="659.7" y="61.5" width="120" height="60" as="geometry" />
        </mxCell>
        <mxCell id="23Uv_tyZsOAz5xgCa8Ph-86" value="" style="shape=mxgraph.cisco.hubs_and_gateways.small_hub;html=1;pointerEvents=1;dashed=0;fillColor=#036897;strokeColor=#ffffff;strokeWidth=2;verticalLabelPosition=bottom;verticalAlign=top;align=center;outlineConnect=0;fontSize=6;fontColor=#333333;" parent="8O2uawOGH-FbcPCOpxYq-6" vertex="1">
          <mxGeometry x="697.7" y="81" width="45" height="33" as="geometry" />
        </mxCell>
        <mxCell id="23Uv_tyZsOAz5xgCa8Ph-93" value="&lt;font style=&quot;font-size: 9px;&quot;&gt;User Scripts&lt;/font&gt;" style="verticalLabelPosition=bottom;html=1;verticalAlign=top;align=center;strokeColor=none;fillColor=#00BEF2;shape=mxgraph.azure.cloud_services_configuration_file;pointerEvents=1;fontSize=5;fontColor=#333333;" parent="8O2uawOGH-FbcPCOpxYq-6" vertex="1">
          <mxGeometry x="712.88" y="280" width="20" height="20" as="geometry" />
        </mxCell>
        <mxCell id="23Uv_tyZsOAz5xgCa8Ph-284" style="rounded=0;orthogonalLoop=1;jettySize=auto;html=1;strokeColor=#003366;strokeWidth=1;fontSize=8;fontColor=#696969;startArrow=none;startFill=0;endArrow=none;endFill=0;startSize=4;endSize=4;sourcePerimeterSpacing=1;targetPerimeterSpacing=1;entryX=0;entryY=0.5;entryDx=0;entryDy=0;entryPerimeter=0;exitX=0;exitY=0.5;exitDx=0;exitDy=0;exitPerimeter=0;" parent="8O2uawOGH-FbcPCOpxYq-6" source="23Uv_tyZsOAz5xgCa8Ph-68" target="23Uv_tyZsOAz5xgCa8Ph-281" edge="1">
          <mxGeometry relative="1" as="geometry">
            <mxPoint x="145" y="348.35499999999996" as="targetPoint" />
          </mxGeometry>
        </mxCell>
        <mxCell id="23Uv_tyZsOAz5xgCa8Ph-68" value="&lt;font color=&quot;#475d7d&quot; style=&quot;font-size: 10px; line-height: 1;&quot;&gt;zwave &lt;br&gt;controller&lt;/font&gt;" style="outlineConnect=0;dashed=0;verticalLabelPosition=bottom;verticalAlign=middle;align=center;html=1;shape=mxgraph.aws3.house;fillColor=#5294CF;gradientColor=none;fontSize=10;strokeColor=#485A7D;fontColor=#333333;movableLabel=1;labelPosition=center;spacing=3;comic=0;" parent="8O2uawOGH-FbcPCOpxYq-6" vertex="1">
          <mxGeometry x="160" y="328.74" width="40" height="39.99" as="geometry">
            <mxPoint y="-9" as="offset" />
          </mxGeometry>
        </mxCell>
        <mxCell id="23Uv_tyZsOAz5xgCa8Ph-67" style="edgeStyle=orthogonalEdgeStyle;rounded=1;orthogonalLoop=1;jettySize=auto;html=1;fontSize=6;fontColor=#333333;startArrow=none;startFill=0;endArrow=none;endFill=0;strokeColor=#003366;strokeWidth=1;shape=link;" parent="8O2uawOGH-FbcPCOpxYq-6" source="23Uv_tyZsOAz5xgCa8Ph-68" edge="1">
          <mxGeometry relative="1" as="geometry">
            <mxPoint x="260" y="349" as="targetPoint" />
          </mxGeometry>
        </mxCell>
        <mxCell id="23Uv_tyZsOAz5xgCa8Ph-101" value="1-wire gateway" style="outlineConnect=0;dashed=0;verticalLabelPosition=bottom;verticalAlign=top;align=center;html=1;shape=mxgraph.aws3.house;fillColor=#5294CF;gradientColor=none;fontSize=8;strokeColor=#485A7D;fontColor=#003366;" parent="8O2uawOGH-FbcPCOpxYq-6" vertex="1">
          <mxGeometry x="155" y="409.99" width="40" height="39.99" as="geometry" />
        </mxCell>
        <mxCell id="23Uv_tyZsOAz5xgCa8Ph-102" style="edgeStyle=orthogonalEdgeStyle;rounded=1;orthogonalLoop=1;jettySize=auto;html=1;fontSize=6;fontColor=#333333;startArrow=none;startFill=0;endArrow=none;endFill=0;strokeColor=#003366;strokeWidth=1;shape=link;exitX=1;exitY=0.5;exitDx=0;exitDy=0;exitPerimeter=0;" parent="8O2uawOGH-FbcPCOpxYq-6" source="23Uv_tyZsOAz5xgCa8Ph-101" edge="1">
          <mxGeometry relative="1" as="geometry">
            <mxPoint x="196.09" y="429.67000000000013" as="sourcePoint" />
            <mxPoint x="260" y="430" as="targetPoint" />
          </mxGeometry>
        </mxCell>
        <mxCell id="23Uv_tyZsOAz5xgCa8Ph-162" value="" style="group" parent="8O2uawOGH-FbcPCOpxYq-6" vertex="1" connectable="0">
          <mxGeometry x="373" y="389" width="60" height="50" as="geometry" />
        </mxCell>
        <mxCell id="23Uv_tyZsOAz5xgCa8Ph-152" value="" style="shape=hexagon;perimeter=hexagonPerimeter2;whiteSpace=wrap;html=1;fixedSize=1;rounded=0;glass=0;comic=0;strokeColor=#003366;fontSize=6;movableLabel=1;" parent="23Uv_tyZsOAz5xgCa8Ph-162" vertex="1">
          <mxGeometry width="60" height="50" as="geometry" />
        </mxCell>
        <mxCell id="23Uv_tyZsOAz5xgCa8Ph-156" value="&lt;font color=&quot;#485a7d&quot; style=&quot;font-size: 8px;&quot;&gt;Certs&lt;/font&gt;" style="text;html=1;strokeColor=none;fillColor=none;align=center;verticalAlign=middle;whiteSpace=wrap;rounded=0;fontSize=6;" parent="23Uv_tyZsOAz5xgCa8Ph-162" vertex="1">
          <mxGeometry x="17.30400000000003" y="31.16666666666668" width="25.386" height="11.11111111111111" as="geometry" />
        </mxCell>
        <mxCell id="23Uv_tyZsOAz5xgCa8Ph-159" value="" style="outlineConnect=0;dashed=0;verticalLabelPosition=bottom;verticalAlign=top;align=center;html=1;shape=mxgraph.aws3.certificate;fillColor=#5294CF;gradientColor=none;rounded=0;glass=0;comic=0;strokeColor=#003366;fontSize=6;" parent="23Uv_tyZsOAz5xgCa8Ph-162" vertex="1">
          <mxGeometry x="22.000000000000057" y="6.455555555555559" width="16" height="22.77777777777778" as="geometry" />
        </mxCell>
        <mxCell id="23Uv_tyZsOAz5xgCa8Ph-180" value="" style="group" parent="8O2uawOGH-FbcPCOpxYq-6" vertex="1" connectable="0">
          <mxGeometry x="373" y="330" width="60" height="50" as="geometry" />
        </mxCell>
        <mxCell id="23Uv_tyZsOAz5xgCa8Ph-181" value="" style="shape=hexagon;perimeter=hexagonPerimeter2;whiteSpace=wrap;html=1;fixedSize=1;rounded=0;glass=0;comic=0;strokeColor=#003366;fontSize=6;movableLabel=1;" parent="23Uv_tyZsOAz5xgCa8Ph-180" vertex="1">
          <mxGeometry width="60" height="50" as="geometry" />
        </mxCell>
        <mxCell id="23Uv_tyZsOAz5xgCa8Ph-182" value="&lt;font style=&quot;font-size: 7px;&quot;&gt;Provisioning&lt;/font&gt;" style="text;html=1;strokeColor=none;fillColor=none;align=center;verticalAlign=middle;whiteSpace=wrap;rounded=0;fontSize=7;fontColor=#485A7D;" parent="23Uv_tyZsOAz5xgCa8Ph-180" vertex="1">
          <mxGeometry x="15" y="28.330000000000002" width="30" height="11.11" as="geometry" />
        </mxCell>
        <mxCell id="23Uv_tyZsOAz5xgCa8Ph-184" value="" style="outlineConnect=0;dashed=0;verticalLabelPosition=bottom;verticalAlign=top;align=center;html=1;shape=mxgraph.aws3.certificate;fillColor=#FFAF69;rounded=0;glass=0;comic=0;strokeColor=#d79b00;fontSize=6;" parent="23Uv_tyZsOAz5xgCa8Ph-180" vertex="1">
          <mxGeometry x="22" y="5.555555555555555" width="16" height="22.77777777777778" as="geometry" />
        </mxCell>
        <mxCell id="23Uv_tyZsOAz5xgCa8Ph-244" value="" style="group" parent="8O2uawOGH-FbcPCOpxYq-6" vertex="1" connectable="0">
          <mxGeometry x="564.7" y="325" width="60" height="50" as="geometry" />
        </mxCell>
        <mxCell id="b8-BjnEewdxaXj9wa9ja-4" style="edgeStyle=orthogonalEdgeStyle;rounded=0;orthogonalLoop=1;jettySize=auto;html=1;fontColor=#696969;spacing=2;strokeColor=#696969;endSize=3;startSize=3;" edge="1" parent="23Uv_tyZsOAz5xgCa8Ph-244" source="23Uv_tyZsOAz5xgCa8Ph-245">
          <mxGeometry relative="1" as="geometry">
            <mxPoint x="-24.700000000000045" y="25" as="targetPoint" />
          </mxGeometry>
        </mxCell>
        <mxCell id="23Uv_tyZsOAz5xgCa8Ph-245" value="" style="shape=hexagon;perimeter=hexagonPerimeter2;whiteSpace=wrap;html=1;fixedSize=1;rounded=0;glass=0;comic=0;strokeColor=#003366;fontSize=6;movableLabel=1;dashed=1;" parent="23Uv_tyZsOAz5xgCa8Ph-244" vertex="1">
          <mxGeometry x="5" width="60" height="50" as="geometry" />
        </mxCell>
        <mxCell id="23Uv_tyZsOAz5xgCa8Ph-246" value="&lt;font style=&quot;font-size: 8px;&quot;&gt;HiveOView&lt;/font&gt;" style="text;html=1;strokeColor=none;fillColor=none;align=center;verticalAlign=middle;whiteSpace=wrap;rounded=0;fontSize=8;fontColor=#485A7D;" parent="23Uv_tyZsOAz5xgCa8Ph-244" vertex="1">
          <mxGeometry x="22.30400000000003" y="30.555555555555554" width="25.386" height="11.11111111111111" as="geometry" />
        </mxCell>
        <mxCell id="23Uv_tyZsOAz5xgCa8Ph-38" value="" style="aspect=fixed;perimeter=ellipsePerimeter;html=1;align=center;shadow=0;dashed=0;spacingTop=3;image;image=img/lib/active_directory/web_server.svg;fontSize=5;fontColor=#333333;strokeColor=#485A7D;fillColor=none;gradientColor=none;" parent="23Uv_tyZsOAz5xgCa8Ph-244" vertex="1">
          <mxGeometry x="27.69" y="5" width="15" height="18.75" as="geometry" />
        </mxCell>
        <mxCell id="23Uv_tyZsOAz5xgCa8Ph-248" value="" style="verticalLabelPosition=bottom;sketch=0;aspect=fixed;html=1;verticalAlign=top;strokeColor=none;align=center;outlineConnect=0;shape=mxgraph.citrix.browser;rounded=0;glass=0;comic=0;fontSize=12;fontColor=#003333;fillColor=#FFAF69;" parent="8O2uawOGH-FbcPCOpxYq-6" vertex="1">
          <mxGeometry x="721.35" y="341.98" width="8.35" height="12.74" as="geometry" />
        </mxCell>
        <mxCell id="23Uv_tyZsOAz5xgCa8Ph-251" value="" style="group;editable=0;" parent="8O2uawOGH-FbcPCOpxYq-6" vertex="1" connectable="0">
          <mxGeometry x="260" y="404.98" width="60" height="50" as="geometry" />
        </mxCell>
        <mxCell id="23Uv_tyZsOAz5xgCa8Ph-252" value="" style="shape=hexagon;perimeter=hexagonPerimeter2;whiteSpace=wrap;html=1;fixedSize=1;rounded=0;glass=0;comic=0;strokeColor=#003366;fontSize=6;movableLabel=1;connectable=1;resizable=0;" parent="23Uv_tyZsOAz5xgCa8Ph-251" vertex="1">
          <mxGeometry width="60" height="50" as="geometry" />
        </mxCell>
        <mxCell id="23Uv_tyZsOAz5xgCa8Ph-254" value="1-wire Binding" style="text;html=1;strokeColor=none;fillColor=none;align=center;verticalAlign=middle;whiteSpace=wrap;rounded=0;glass=0;comic=0;fontSize=6;fontColor=#696969;" parent="23Uv_tyZsOAz5xgCa8Ph-251" vertex="1">
          <mxGeometry x="12.5" y="28.125" width="32.5" height="15.625" as="geometry" />
        </mxCell>
        <mxCell id="23Uv_tyZsOAz5xgCa8Ph-52" value="" style="aspect=fixed;perimeter=ellipsePerimeter;html=1;align=center;shadow=0;dashed=0;fontColor=#4277BB;labelBackgroundColor=#ffffff;fontSize=12;spacingTop=3;image;image=img/lib/ibm/vpc/PublicGateway.svg;strokeColor=#A3A3A3;fillColor=none;gradientColor=none;" parent="23Uv_tyZsOAz5xgCa8Ph-251" vertex="1">
          <mxGeometry x="18" y="5" width="23.13" height="23.13" as="geometry" />
        </mxCell>
        <mxCell id="23Uv_tyZsOAz5xgCa8Ph-255" value="" style="group;editable=0;" parent="8O2uawOGH-FbcPCOpxYq-6" vertex="1" connectable="0">
          <mxGeometry x="260" y="323.35" width="60" height="50" as="geometry" />
        </mxCell>
        <mxCell id="23Uv_tyZsOAz5xgCa8Ph-256" value="" style="shape=hexagon;perimeter=hexagonPerimeter2;whiteSpace=wrap;html=1;fixedSize=1;rounded=0;glass=0;comic=0;strokeColor=#003366;fontSize=6;movableLabel=1;connectable=1;" parent="23Uv_tyZsOAz5xgCa8Ph-255" vertex="1">
          <mxGeometry width="60" height="50" as="geometry" />
        </mxCell>
        <mxCell id="23Uv_tyZsOAz5xgCa8Ph-257" value="ZWave Binding" style="text;html=1;strokeColor=none;fillColor=none;align=center;verticalAlign=middle;whiteSpace=wrap;rounded=0;glass=0;comic=0;fontSize=6;fontColor=#696969;" parent="23Uv_tyZsOAz5xgCa8Ph-255" vertex="1">
          <mxGeometry x="12.5" y="28.125" width="32.5" height="15.625" as="geometry" />
        </mxCell>
        <mxCell id="23Uv_tyZsOAz5xgCa8Ph-258" value="" style="aspect=fixed;perimeter=ellipsePerimeter;html=1;align=center;shadow=0;dashed=0;fontColor=#4277BB;labelBackgroundColor=#ffffff;fontSize=12;spacingTop=3;image;image=img/lib/ibm/vpc/PublicGateway.svg;strokeColor=#A3A3A3;fillColor=none;gradientColor=none;" parent="23Uv_tyZsOAz5xgCa8Ph-255" vertex="1">
          <mxGeometry x="18" y="5" width="23.13" height="23.13" as="geometry" />
        </mxCell>
        <mxCell id="8O2uawOGH-FbcPCOpxYq-23" style="edgeStyle=orthogonalEdgeStyle;rounded=1;orthogonalLoop=1;jettySize=auto;html=1;fontSize=11;fontColor=default;strokeColor=#696969;startSize=3;endSize=3;" parent="8O2uawOGH-FbcPCOpxYq-6" edge="1">
          <mxGeometry relative="1" as="geometry">
            <mxPoint x="179.99" y="214.99857142857135" as="sourcePoint" />
            <mxPoint x="400" y="265" as="targetPoint" />
            <Array as="points">
              <mxPoint x="399.99" y="214.97" />
            </Array>
          </mxGeometry>
        </mxCell>
        <mxCell id="23Uv_tyZsOAz5xgCa8Ph-45" value="&lt;font color=&quot;#5e5e5e&quot; style=&quot;font-size: 10px;&quot;&gt;HiveOT IoT Devices&lt;/font&gt;" style="rounded=1;whiteSpace=wrap;html=1;fontSize=10;strokeColor=#A3A3A3;fillColor=none;gradientColor=none;verticalAlign=top;labelPosition=center;verticalLabelPosition=bottom;align=center;dashed=1;" parent="8O2uawOGH-FbcPCOpxYq-6" vertex="1">
          <mxGeometry x="60" y="165" width="120" height="108" as="geometry" />
        </mxCell>
        <mxCell id="23Uv_tyZsOAz5xgCa8Ph-46" value="" style="outlineConnect=0;dashed=0;verticalLabelPosition=bottom;verticalAlign=top;align=center;html=1;shape=mxgraph.aws3.thermostat;fillColor=#5294CF;gradientColor=none;fontSize=14;strokeColor=#A3A3A3;labelPosition=center;" parent="8O2uawOGH-FbcPCOpxYq-6" vertex="1">
          <mxGeometry x="80" y="229.8" width="30" height="32.400000000000006" as="geometry" />
        </mxCell>
        <mxCell id="23Uv_tyZsOAz5xgCa8Ph-47" value="" style="outlineConnect=0;dashed=0;verticalLabelPosition=bottom;verticalAlign=top;align=center;html=1;shape=mxgraph.aws3.house;fillColor=#5294CF;gradientColor=none;fontSize=14;strokeColor=#A3A3A3;labelPosition=center;" parent="8O2uawOGH-FbcPCOpxYq-6" vertex="1">
          <mxGeometry x="130" y="186.6" width="30" height="32.400000000000006" as="geometry" />
        </mxCell>
        <mxCell id="23Uv_tyZsOAz5xgCa8Ph-48" value="" style="outlineConnect=0;dashed=0;verticalLabelPosition=bottom;verticalAlign=top;align=center;html=1;shape=mxgraph.aws3.camera;fillColor=#5294CF;gradientColor=none;fontSize=14;strokeColor=#A3A3A3;labelPosition=center;" parent="8O2uawOGH-FbcPCOpxYq-6" vertex="1">
          <mxGeometry x="80" y="186.6" width="30" height="32.400000000000006" as="geometry" />
        </mxCell>
        <mxCell id="23Uv_tyZsOAz5xgCa8Ph-49" value="" style="outlineConnect=0;dashed=0;verticalLabelPosition=bottom;verticalAlign=top;align=center;html=1;shape=mxgraph.aws3.windfarm;fillColor=#5294CF;gradientColor=none;fontSize=14;strokeColor=#A3A3A3;labelPosition=center;" parent="8O2uawOGH-FbcPCOpxYq-6" vertex="1">
          <mxGeometry x="130" y="229.8" width="30" height="32.400000000000006" as="geometry" />
        </mxCell>
        <mxCell id="23Uv_tyZsOAz5xgCa8Ph-278" style="edgeStyle=orthogonalEdgeStyle;rounded=1;orthogonalLoop=1;jettySize=auto;html=1;exitX=0;exitY=0.5;exitDx=0;exitDy=0;exitPerimeter=0;entryX=0;entryY=0.5;entryDx=0;entryDy=0;entryPerimeter=0;strokeColor=#003366;strokeWidth=1;fontSize=8;fontColor=#003366;startArrow=none;startFill=0;endArrow=none;endFill=0;startSize=4;endSize=4;sourcePerimeterSpacing=1;targetPerimeterSpacing=1;" parent="8O2uawOGH-FbcPCOpxYq-6" source="23Uv_tyZsOAz5xgCa8Ph-58" target="23Uv_tyZsOAz5xgCa8Ph-101" edge="1">
          <mxGeometry relative="1" as="geometry" />
        </mxCell>
        <mxCell id="23Uv_tyZsOAz5xgCa8Ph-279" value="" style="group" parent="8O2uawOGH-FbcPCOpxYq-6" vertex="1" connectable="0">
          <mxGeometry x="110" y="420.49" width="34.31999999999999" height="36.49000000000001" as="geometry" />
        </mxCell>
        <mxCell id="23Uv_tyZsOAz5xgCa8Ph-58" value="" style="verticalLabelPosition=bottom;aspect=fixed;html=1;verticalAlign=top;strokeColor=#696969;fillColor=#000000;align=center;outlineConnect=0;shape=mxgraph.fluid_power.x11770;points=[[0,0.5,0]];fontSize=14;flipH=1;fontColor=#696969;" parent="23Uv_tyZsOAz5xgCa8Ph-279" vertex="1">
          <mxGeometry x="5" width="29.32" height="17.51" as="geometry" />
        </mxCell>
        <mxCell id="23Uv_tyZsOAz5xgCa8Ph-59" value="&lt;meta charset=&quot;utf-8&quot; style=&quot;font-size: 8px;&quot;&gt;&lt;span style=&quot;font-family: helvetica; font-size: 8px; font-style: normal; font-weight: 400; letter-spacing: normal; text-indent: 0px; text-transform: none; word-spacing: 0px; background-color: rgb(248, 249, 250); display: inline; float: none;&quot;&gt;sensors/&lt;/span&gt;&lt;br style=&quot;font-family: helvetica; font-size: 8px; font-style: normal; font-weight: 400; letter-spacing: normal; text-indent: 0px; text-transform: none; word-spacing: 0px; background-color: rgb(248, 249, 250);&quot;&gt;&lt;span style=&quot;font-family: helvetica; font-size: 8px; font-style: normal; font-weight: 400; letter-spacing: normal; text-indent: 0px; text-transform: none; word-spacing: 0px; background-color: rgb(248, 249, 250); display: inline; float: none;&quot;&gt;actualtors&lt;/span&gt;" style="text;whiteSpace=wrap;html=1;fontSize=8;fontColor=#696969;align=center;verticalAlign=middle;" parent="23Uv_tyZsOAz5xgCa8Ph-279" vertex="1">
          <mxGeometry y="19.5" width="30" height="16.99" as="geometry" />
        </mxCell>
        <mxCell id="23Uv_tyZsOAz5xgCa8Ph-281" value="" style="verticalLabelPosition=bottom;aspect=fixed;html=1;verticalAlign=top;strokeColor=#696969;fillColor=#000000;align=center;outlineConnect=0;shape=mxgraph.fluid_power.x11770;points=[[0,0.5,0]];fontSize=14;flipH=1;fontColor=#696969;" parent="8O2uawOGH-FbcPCOpxYq-6" vertex="1">
          <mxGeometry x="115" y="340" width="29.32" height="17.51" as="geometry" />
        </mxCell>
        <mxCell id="23Uv_tyZsOAz5xgCa8Ph-282" value="&lt;meta charset=&quot;utf-8&quot; style=&quot;font-size: 8px;&quot;&gt;&lt;span style=&quot;font-family: helvetica; font-size: 8px; font-style: normal; font-weight: 400; letter-spacing: normal; text-indent: 0px; text-transform: none; word-spacing: 0px; background-color: rgb(248, 249, 250); display: inline; float: none;&quot;&gt;sensors/&lt;/span&gt;&lt;br style=&quot;font-family: helvetica; font-size: 8px; font-style: normal; font-weight: 400; letter-spacing: normal; text-indent: 0px; text-transform: none; word-spacing: 0px; background-color: rgb(248, 249, 250);&quot;&gt;&lt;span style=&quot;font-family: helvetica; font-size: 8px; font-style: normal; font-weight: 400; letter-spacing: normal; text-indent: 0px; text-transform: none; word-spacing: 0px; background-color: rgb(248, 249, 250); display: inline; float: none;&quot;&gt;actualtors&lt;/span&gt;" style="text;whiteSpace=wrap;html=1;fontSize=8;fontColor=#696969;align=center;verticalAlign=middle;" parent="8O2uawOGH-FbcPCOpxYq-6" vertex="1">
          <mxGeometry x="110" y="359.5" width="30" height="16.99" as="geometry" />
        </mxCell>
        <mxCell id="tpNoe-Q0NPWMrLwCZJiA-1" value="" style="group" parent="8O2uawOGH-FbcPCOpxYq-6" vertex="1" connectable="0">
          <mxGeometry x="565" y="444.99" width="60" height="50" as="geometry" />
        </mxCell>
        <mxCell id="tpNoe-Q0NPWMrLwCZJiA-2" value="" style="shape=hexagon;perimeter=hexagonPerimeter2;whiteSpace=wrap;html=1;fixedSize=1;rounded=0;glass=0;comic=0;strokeColor=#003366;fontSize=6;movableLabel=1;" parent="tpNoe-Q0NPWMrLwCZJiA-1" vertex="1">
          <mxGeometry x="5" width="60" height="50" as="geometry" />
        </mxCell>
        <mxCell id="tpNoe-Q0NPWMrLwCZJiA-3" value="&lt;font style=&quot;font-size: 8px;&quot;&gt;HubCLI&lt;/font&gt;" style="text;html=1;strokeColor=none;fillColor=none;align=center;verticalAlign=middle;whiteSpace=wrap;rounded=0;fontSize=8;fontColor=#485A7D;" parent="tpNoe-Q0NPWMrLwCZJiA-1" vertex="1">
          <mxGeometry x="15" y="30.56" width="40" height="11.11" as="geometry" />
        </mxCell>
        <mxCell id="tpNoe-Q0NPWMrLwCZJiA-13" value="" style="sketch=0;outlineConnect=0;fontColor=#232F3E;gradientColor=none;strokeColor=#ffffff;fillColor=#696969;dashed=0;verticalLabelPosition=middle;verticalAlign=bottom;align=center;html=1;whiteSpace=wrap;fontSize=10;fontStyle=1;spacing=3;shape=mxgraph.aws4.productIcon;prIcon=mxgraph.aws4.command_line_interface;noLabel=1;" parent="tpNoe-Q0NPWMrLwCZJiA-1" vertex="1">
          <mxGeometry x="25" y="5" width="20" height="20" as="geometry" />
        </mxCell>
        <mxCell id="tpNoe-Q0NPWMrLwCZJiA-16" style="edgeStyle=orthogonalEdgeStyle;rounded=1;orthogonalLoop=1;jettySize=auto;html=1;entryX=1;entryY=0.5;entryDx=0;entryDy=0;strokeColor=#696969;fontSize=11;endSize=2;endArrow=classic;endFill=1;startSize=2;" parent="8O2uawOGH-FbcPCOpxYq-6" source="tpNoe-Q0NPWMrLwCZJiA-15" target="tpNoe-Q0NPWMrLwCZJiA-2" edge="1">
          <mxGeometry relative="1" as="geometry" />
        </mxCell>
        <mxCell id="tpNoe-Q0NPWMrLwCZJiA-15" value="Terminal" style="sketch=0;outlineConnect=0;fontColor=#696969;gradientColor=none;strokeColor=#ffffff;fillColor=#696969;dashed=0;verticalLabelPosition=bottom;verticalAlign=top;align=center;html=1;whiteSpace=wrap;fontSize=8;fontStyle=1;spacing=3;shape=mxgraph.aws4.productIcon;prIcon=mxgraph.aws4.command_line_interface;labelPosition=center;" parent="8O2uawOGH-FbcPCOpxYq-6" vertex="1">
          <mxGeometry x="707.88" y="454.98" width="37.65" height="30.02" as="geometry" />
        </mxCell>
        <mxCell id="CdIwx1v8MFl134omTwEQ-1" style="edgeStyle=orthogonalEdgeStyle;rounded=1;orthogonalLoop=1;jettySize=auto;html=1;endSize=3;startSize=3;strokeColor=#696969;exitX=1;exitY=0.5;exitDx=0;exitDy=0;" parent="8O2uawOGH-FbcPCOpxYq-6" source="23Uv_tyZsOAz5xgCa8Ph-256" edge="1">
          <mxGeometry relative="1" as="geometry">
            <Array as="points" />
            <mxPoint x="355" y="349" as="targetPoint" />
          </mxGeometry>
        </mxCell>
        <mxCell id="23Uv_tyZsOAz5xgCa8Ph-165" value="" style="group" parent="8O2uawOGH-FbcPCOpxYq-6" vertex="1" connectable="0">
          <mxGeometry x="463" y="330" width="60" height="50" as="geometry" />
        </mxCell>
        <mxCell id="23Uv_tyZsOAz5xgCa8Ph-153" value="" style="shape=hexagon;perimeter=hexagonPerimeter2;whiteSpace=wrap;html=1;fixedSize=1;rounded=0;glass=0;comic=0;strokeColor=#003366;fontSize=6;movableLabel=1;" parent="23Uv_tyZsOAz5xgCa8Ph-165" vertex="1">
          <mxGeometry width="60" height="50" as="geometry" />
        </mxCell>
        <mxCell id="23Uv_tyZsOAz5xgCa8Ph-154" value="&lt;font style=&quot;font-size: 8px;&quot;&gt;History&lt;/font&gt;" style="text;html=1;strokeColor=none;fillColor=none;align=center;verticalAlign=middle;whiteSpace=wrap;rounded=0;fontSize=8;fontColor=#485A7D;" parent="23Uv_tyZsOAz5xgCa8Ph-165" vertex="1">
          <mxGeometry x="15" y="30.56" width="30" height="11.11" as="geometry" />
        </mxCell>
        <mxCell id="23Uv_tyZsOAz5xgCa8Ph-233" value="" style="verticalLabelPosition=bottom;html=1;verticalAlign=top;align=center;strokeColor=none;fillColor=#00BEF2;shape=mxgraph.azure.scheduler;pointerEvents=1;rounded=0;glass=0;comic=0;fontSize=6;fontColor=#696969;" parent="23Uv_tyZsOAz5xgCa8Ph-165" vertex="1">
          <mxGeometry x="21.5" y="5" width="17" height="20" as="geometry" />
        </mxCell>
        <mxCell id="8O2uawOGH-FbcPCOpxYq-4" style="edgeStyle=orthogonalEdgeStyle;rounded=1;orthogonalLoop=1;jettySize=auto;html=1;strokeColor=#696969;startSize=3;endSize=3;" parent="8O2uawOGH-FbcPCOpxYq-6" edge="1">
          <mxGeometry relative="1" as="geometry">
            <Array as="points">
              <mxPoint x="345" y="430" />
              <mxPoint x="345" y="430" />
            </Array>
            <mxPoint x="320" y="430" as="sourcePoint" />
            <mxPoint x="355" y="430" as="targetPoint" />
          </mxGeometry>
        </mxCell>
        <mxCell id="8O2uawOGH-FbcPCOpxYq-10" value="" style="group;strokeColor=none;perimeter=hexagonPerimeter2;" parent="8O2uawOGH-FbcPCOpxYq-6" vertex="1" connectable="0">
          <mxGeometry x="570" y="186.6" width="60" height="50" as="geometry" />
        </mxCell>
        <mxCell id="23Uv_tyZsOAz5xgCa8Ph-241" value="" style="shape=hexagon;perimeter=hexagonPerimeter2;whiteSpace=wrap;html=1;fixedSize=1;rounded=0;glass=0;comic=0;strokeColor=default;fontSize=6;movableLabel=1;container=0;fixDash=0;dashed=1;" parent="8O2uawOGH-FbcPCOpxYq-10" vertex="1">
          <mxGeometry width="60" height="50" as="geometry" />
        </mxCell>
        <mxCell id="23Uv_tyZsOAz5xgCa8Ph-242" value="&lt;font color=&quot;#485a7d&quot; style=&quot;font-size: 8px;&quot;&gt;Bridge&lt;/font&gt;" style="text;html=1;strokeColor=none;fillColor=none;align=center;verticalAlign=middle;whiteSpace=wrap;rounded=0;fontSize=6;container=0;" parent="8O2uawOGH-FbcPCOpxYq-10" vertex="1">
          <mxGeometry x="17.304000000000087" y="30.555555555555543" width="25.386" height="11.11111111111111" as="geometry" />
        </mxCell>
        <mxCell id="23Uv_tyZsOAz5xgCa8Ph-92" value="" style="aspect=fixed;perimeter=ellipsePerimeter;html=1;align=center;shadow=0;dashed=0;fontColor=#4277BB;labelBackgroundColor=#ffffff;fontSize=12;spacingTop=3;image;image=img/lib/ibm/vpc/Bridge.svg;container=0;" parent="8O2uawOGH-FbcPCOpxYq-10" vertex="1">
          <mxGeometry x="20" y="10.560000000000002" width="20" height="20" as="geometry" />
        </mxCell>
        <mxCell id="8O2uawOGH-FbcPCOpxYq-15" value="" style="group" parent="8O2uawOGH-FbcPCOpxYq-6" vertex="1" connectable="0">
          <mxGeometry x="465" y="390" width="60" height="50" as="geometry" />
        </mxCell>
        <mxCell id="8O2uawOGH-FbcPCOpxYq-16" value="" style="shape=hexagon;perimeter=hexagonPerimeter2;whiteSpace=wrap;html=1;fixedSize=1;rounded=0;glass=0;comic=0;strokeColor=#003366;fontSize=6;movableLabel=1;container=0;" parent="8O2uawOGH-FbcPCOpxYq-15" vertex="1">
          <mxGeometry width="60" height="50" as="geometry" />
        </mxCell>
        <mxCell id="8O2uawOGH-FbcPCOpxYq-17" value="&lt;font style=&quot;font-size: 8px;&quot;&gt;Launcher&lt;/font&gt;" style="text;html=1;strokeColor=none;fillColor=none;align=center;verticalAlign=middle;whiteSpace=wrap;rounded=0;fontSize=8;labelBackgroundColor=none;fontColor=#485A7D;container=0;" parent="8O2uawOGH-FbcPCOpxYq-15" vertex="1">
          <mxGeometry x="15" y="30.560000000000002" width="30" height="11.11" as="geometry" />
        </mxCell>
        <mxCell id="8O2uawOGH-FbcPCOpxYq-18" value="" style="sketch=0;html=1;aspect=fixed;strokeColor=none;shadow=0;align=center;verticalAlign=top;fillColor=#3B8DF1;shape=mxgraph.gcp2.time_clock;rounded=0;glass=0;comic=0;fontSize=6;container=0;" parent="8O2uawOGH-FbcPCOpxYq-15" vertex="1">
          <mxGeometry x="20.54000000000002" y="6.111111111111114" width="16.817777777777778" height="19.555555555555554" as="geometry" />
        </mxCell>
        <mxCell id="8O2uawOGH-FbcPCOpxYq-19" value="" style="group" parent="8O2uawOGH-FbcPCOpxYq-6" vertex="1" connectable="0">
          <mxGeometry x="418" y="359.99" width="60" height="50" as="geometry" />
        </mxCell>
        <mxCell id="23Uv_tyZsOAz5xgCa8Ph-222" value="" style="shape=hexagon;perimeter=hexagonPerimeter2;whiteSpace=wrap;html=1;fixedSize=1;rounded=0;glass=0;comic=0;strokeColor=#003366;fontSize=6;movableLabel=1;connectable=0;" parent="8O2uawOGH-FbcPCOpxYq-19" vertex="1">
          <mxGeometry width="60" height="50" as="geometry" />
        </mxCell>
        <mxCell id="23Uv_tyZsOAz5xgCa8Ph-223" value="&lt;font style=&quot;font-size: 8px;&quot; color=&quot;#485a7d&quot;&gt;Auth&lt;br&gt;&lt;/font&gt;" style="text;html=1;strokeColor=none;fillColor=none;align=center;verticalAlign=middle;whiteSpace=wrap;rounded=0;glass=0;comic=0;fontSize=6;fontColor=#696969;" parent="8O2uawOGH-FbcPCOpxYq-19" vertex="1">
          <mxGeometry x="12.5" y="28.129999999999995" width="32.5" height="15.63" as="geometry" />
        </mxCell>
        <mxCell id="23Uv_tyZsOAz5xgCa8Ph-186" value="" style="shape=image;verticalLabelPosition=bottom;labelBackgroundColor=default;verticalAlign=top;aspect=fixed;imageAspect=0;image=https://cdn3.iconfinder.com/data/icons/development-icons/128/permission-1024.png;noLabel=0;" parent="8O2uawOGH-FbcPCOpxYq-19" vertex="1">
          <mxGeometry x="21.99000000000001" y="6.25" width="16.013076923076923" height="16.013076923076923" as="geometry" />
        </mxCell>
        <mxCell id="23Uv_tyZsOAz5xgCa8Ph-234" value="" style="group" parent="8O2uawOGH-FbcPCOpxYq-6" vertex="1" connectable="0">
          <mxGeometry x="418" y="440" width="60" height="50" as="geometry" />
        </mxCell>
        <mxCell id="23Uv_tyZsOAz5xgCa8Ph-235" value="" style="shape=hexagon;perimeter=hexagonPerimeter2;whiteSpace=wrap;html=1;fixedSize=1;rounded=0;glass=0;comic=0;strokeColor=#003366;fontSize=6;movableLabel=1;" parent="23Uv_tyZsOAz5xgCa8Ph-234" vertex="1">
          <mxGeometry width="60" height="50" as="geometry" />
        </mxCell>
        <mxCell id="23Uv_tyZsOAz5xgCa8Ph-236" value="&lt;font color=&quot;#485a7d&quot; style=&quot;font-size: 8px;&quot;&gt;Message Bus&lt;/font&gt;" style="text;html=1;strokeColor=none;fillColor=none;align=center;verticalAlign=middle;whiteSpace=wrap;rounded=0;fontSize=6;" parent="23Uv_tyZsOAz5xgCa8Ph-234" vertex="1">
          <mxGeometry x="17.30400000000003" y="30.555555555555554" width="25.386" height="11.11111111111111" as="geometry" />
        </mxCell>
        <mxCell id="23Uv_tyZsOAz5xgCa8Ph-238" value="" style="editableCssRules=.*;shape=image;verticalLabelPosition=bottom;labelBackgroundColor=#ffffff;verticalAlign=top;aspect=fixed;imageAspect=0;image=data:image/svg+xml,PHN2ZyB4bWxucz0iaHR0cDovL3d3dy53My5vcmcvMjAwMC9zdmciIHhtbG5zOnY9Imh0dHBzOi8vdmVjdGEuaW8vbmFubyIgd2lkdGg9IjE4LjMxOTk5OTY5NDgyNDIyIiBoZWlnaHQ9IjIwLjAwMDAwMTkwNzM0ODYzMyIgdmlld0JveD0iMCAwIDE4LjMxOTk5OTY5NDgyNDIyIDIwLjAwMDAwMTkwNzM0ODYzMyI+JiN4YTsJPHN0eWxlIHR5cGU9InRleHQvY3NzIj4mI3hhOwkuc3Qwe2ZpbGw6IzY2OWRmNjt9JiN4YTsJLnN0MXtmaWxsOiM0Mjg1ZjQ7fSYjeGE7CS5zdDJ7ZmlsbDojYWVjYmZhO30mI3hhOwk8L3N0eWxlPiYjeGE7CTxkZWZzPiYjeGE7CQk8ZmlsdGVyIGlkPSJBIiB4PSI0LjY0IiB5PSI0LjE5IiB3aWR0aD0iMTQuNzMiIGhlaWdodD0iMTIuNzYiIGZpbHRlclVuaXRzPSJ1c2VyU3BhY2VPblVzZSIgY29sb3ItaW50ZXJwb2xhdGlvbi1maWx0ZXJzPSJzUkdCIj4mI3hhOwkJCTxmZUZsb29kIGZsb29kLWNvbG9yPSIjZmZmIi8+JiN4YTsJCQk8ZmVCbGVuZCBpbj0iU291cmNlR3JhcGhpYyIvPiYjeGE7CQk8L2ZpbHRlcj4mI3hhOwkJPG1hc2sgaWQ9IkIiIHg9IjQuNjQiIHk9IjQuMTkiIHdpZHRoPSIxNC43MyIgaGVpZ2h0PSIxMi43NiIgbWFza1VuaXRzPSJ1c2VyU3BhY2VPblVzZSI+JiN4YTsJCQk8Y2lyY2xlIGN4PSIxMiIgY3k9IjEyLjIzIiByPSIzLjU4IiBmaWx0ZXI9InVybCgjQSkiLz4mI3hhOwkJPC9tYXNrPiYjeGE7CTwvZGVmcz4mI3hhOwk8ZyBjbGFzcz0ic3QwIj4mI3hhOwkJPGNpcmNsZSBjeD0iMTYuMTMiIGN5PSI2LjIxIiByPSIxLjcyIi8+JiN4YTsJCTxjaXJjbGUgY3g9IjIuMTkiIGN5PSI2LjIxIiByPSIxLjcyIi8+JiN4YTsJCTxjaXJjbGUgY3g9IjkuMTYiIGN5PSIxOC4yOCIgcj0iMS43MiIvPiYjeGE7CTwvZz4mI3hhOwk8ZyBtYXNrPSJ1cmwoI0IpIiB0cmFuc2Zvcm09InRyYW5zbGF0ZSgtMi44NCAtMikiPiYjeGE7CQk8cGF0aCB0cmFuc2Zvcm09Im1hdHJpeCguNSAtLjg3IC44NyAuNSAtNC41OSAyMC41MykiIGQ9Ik0xNC42OSAxMC4yMmgxLjU5djguMDRoLTEuNTl6IiBjbGFzcz0ic3QxIi8+JiN4YTsJCTxwYXRoIHRyYW5zZm9ybT0icm90YXRlKDMzMCA4LjUyMyAxNC4yNDQpIiBkPSJNNC40OSAxMy40NWg4LjA0djEuNTlINC40OXoiIGNsYXNzPSJzdDEiLz4mI3hhOwkJPHBhdGggZD0iTTExLjIgNC4xOWgxLjU5djguMDRIMTEuMnoiIGNsYXNzPSJzdDEiLz4mI3hhOwk8L2c+JiN4YTsJPGcgY2xhc3M9InN0MiI+JiN4YTsJCTxjaXJjbGUgY3g9IjkuMTYiIGN5PSIxMC4yMyIgcj0iMi43OCIvPiYjeGE7CQk8Y2lyY2xlIGN4PSIyLjE5IiBjeT0iMTQuMjUiIHI9IjIuMTkiLz4mI3hhOwkJPGNpcmNsZSBjeD0iMTYuMTMiIGN5PSIxNC4yNSIgcj0iMi4xOSIvPiYjeGE7CQk8Y2lyY2xlIGN4PSI5LjE2IiBjeT0iMi4xOSIgcj0iMi4xOSIvPiYjeGE7CTwvZz4mI3hhOzwvc3ZnPg==;rounded=0;glass=0;comic=0;strokeColor=#003366;fontSize=6;fontColor=#696969;fillColor=#FFAF69;" parent="23Uv_tyZsOAz5xgCa8Ph-234" vertex="1">
          <mxGeometry x="21" y="5" width="18" height="20" as="geometry" />
        </mxCell>
        <mxCell id="8O2uawOGH-FbcPCOpxYq-20" value="" style="group" parent="8O2uawOGH-FbcPCOpxYq-6" vertex="1" connectable="0">
          <mxGeometry x="418" y="300" width="60" height="50" as="geometry" />
        </mxCell>
        <mxCell id="23Uv_tyZsOAz5xgCa8Ph-215" value="" style="shape=hexagon;perimeter=hexagonPerimeter2;whiteSpace=wrap;html=1;fixedSize=1;rounded=0;glass=0;comic=0;strokeColor=#003366;fontSize=6;movableLabel=1;connectable=0;" parent="8O2uawOGH-FbcPCOpxYq-20" vertex="1">
          <mxGeometry width="60" height="50" as="geometry" />
        </mxCell>
        <mxCell id="23Uv_tyZsOAz5xgCa8Ph-217" value="&lt;font color=&quot;#485a7d&quot; style=&quot;font-size: 8px;&quot;&gt;Directory&lt;/font&gt;" style="text;html=1;strokeColor=none;fillColor=none;align=center;verticalAlign=middle;whiteSpace=wrap;rounded=0;glass=0;comic=0;fontSize=6;fontColor=#696969;" parent="8O2uawOGH-FbcPCOpxYq-20" vertex="1">
          <mxGeometry x="12.5" y="28.125" width="32.5" height="15.625" as="geometry" />
        </mxCell>
        <mxCell id="23Uv_tyZsOAz5xgCa8Ph-218" value="" style="aspect=fixed;perimeter=ellipsePerimeter;html=1;align=center;shadow=0;dashed=0;spacingTop=3;image;image=img/lib/active_directory/active_directory.svg;fillColor=#5E5E5E;gradientColor=none;" parent="8O2uawOGH-FbcPCOpxYq-20" vertex="1">
          <mxGeometry x="18.779999999999973" y="4.300000000000011" width="22.43" height="19.06" as="geometry" />
        </mxCell>
        <mxCell id="8O2uawOGH-FbcPCOpxYq-28" value="" style="group;editable=0;" parent="8O2uawOGH-FbcPCOpxYq-6" vertex="1" connectable="0">
          <mxGeometry x="260" y="245.00000000000003" width="60" height="50" as="geometry" />
        </mxCell>
        <mxCell id="8O2uawOGH-FbcPCOpxYq-29" value="" style="shape=hexagon;perimeter=hexagonPerimeter2;whiteSpace=wrap;html=1;fixedSize=1;rounded=0;glass=0;comic=0;strokeColor=#003366;fontSize=6;movableLabel=1;connectable=1;dashed=1;" parent="8O2uawOGH-FbcPCOpxYq-28" vertex="1">
          <mxGeometry width="60" height="50" as="geometry" />
        </mxCell>
        <mxCell id="8O2uawOGH-FbcPCOpxYq-30" value="Binding" style="text;html=1;strokeColor=none;fillColor=none;align=center;verticalAlign=middle;whiteSpace=wrap;rounded=0;glass=0;comic=0;fontSize=6;fontColor=#696969;" parent="8O2uawOGH-FbcPCOpxYq-28" vertex="1">
          <mxGeometry x="12.5" y="28.125" width="32.5" height="15.625" as="geometry" />
        </mxCell>
        <mxCell id="8O2uawOGH-FbcPCOpxYq-31" value="" style="aspect=fixed;perimeter=ellipsePerimeter;html=1;align=center;shadow=0;dashed=0;fontColor=#4277BB;labelBackgroundColor=#ffffff;fontSize=12;spacingTop=3;image;image=img/lib/ibm/vpc/PublicGateway.svg;strokeColor=#A3A3A3;fillColor=none;gradientColor=none;" parent="8O2uawOGH-FbcPCOpxYq-28" vertex="1">
          <mxGeometry x="18" y="5" width="23.13" height="23.13" as="geometry" />
        </mxCell>
        <mxCell id="8O2uawOGH-FbcPCOpxYq-32" value="" style="group;dashed=1;strokeColor=none;" parent="8O2uawOGH-FbcPCOpxYq-6" vertex="1" connectable="0">
          <mxGeometry x="569.7" y="265" width="60" height="50" as="geometry" />
        </mxCell>
        <mxCell id="b8-BjnEewdxaXj9wa9ja-3" style="edgeStyle=orthogonalEdgeStyle;rounded=0;orthogonalLoop=1;jettySize=auto;html=1;jumpSize=6;startSize=3;endSize=3;strokeColor=#696969;" edge="1" parent="8O2uawOGH-FbcPCOpxYq-32" source="23Uv_tyZsOAz5xgCa8Ph-271">
          <mxGeometry relative="1" as="geometry">
            <mxPoint x="-29.700000000000045" y="25" as="targetPoint" />
          </mxGeometry>
        </mxCell>
        <mxCell id="23Uv_tyZsOAz5xgCa8Ph-271" value="" style="shape=hexagon;perimeter=hexagonPerimeter2;whiteSpace=wrap;html=1;fixedSize=1;rounded=0;glass=0;comic=0;strokeColor=default;fontSize=6;movableLabel=1;dashed=1;" parent="8O2uawOGH-FbcPCOpxYq-32" vertex="1">
          <mxGeometry width="60" height="50" as="geometry" />
        </mxCell>
        <mxCell id="23Uv_tyZsOAz5xgCa8Ph-272" value="&lt;font style=&quot;font-size: 8px;&quot;&gt;Scripting&lt;/font&gt;" style="text;html=1;strokeColor=none;fillColor=none;align=center;verticalAlign=middle;whiteSpace=wrap;rounded=0;fontSize=8;fontColor=#485A7D;" parent="8O2uawOGH-FbcPCOpxYq-32" vertex="1">
          <mxGeometry x="17.304000000000087" y="30.555555555555543" width="25.386" height="11.11111111111111" as="geometry" />
        </mxCell>
        <mxCell id="23Uv_tyZsOAz5xgCa8Ph-87" value="" style="outlineConnect=0;dashed=0;verticalLabelPosition=bottom;verticalAlign=top;align=center;html=1;shape=mxgraph.aws3.lambda_function;fillColor=#F58534;gradientColor=none;" parent="8O2uawOGH-FbcPCOpxYq-32" vertex="1">
          <mxGeometry x="20" y="9.870000000000005" width="20" height="20.69" as="geometry" />
        </mxCell>
        <mxCell id="b8-BjnEewdxaXj9wa9ja-2" style="edgeStyle=orthogonalEdgeStyle;rounded=1;orthogonalLoop=1;jettySize=auto;html=1;endSize=3;startSize=3;strokeColor=#696969;exitX=0;exitY=0.5;exitDx=0;exitDy=0;" edge="1" parent="8O2uawOGH-FbcPCOpxYq-6" source="23Uv_tyZsOAz5xgCa8Ph-241">
          <mxGeometry relative="1" as="geometry">
            <Array as="points">
              <mxPoint x="475" y="212" />
            </Array>
            <mxPoint x="475" y="266" as="targetPoint" />
            <mxPoint x="460" y="265" as="sourcePoint" />
          </mxGeometry>
        </mxCell>
        <mxCell id="b8-BjnEewdxaXj9wa9ja-6" style="edgeStyle=orthogonalEdgeStyle;rounded=0;orthogonalLoop=1;jettySize=auto;html=1;endSize=3;startSize=3;strokeColor=#696969;" edge="1" parent="8O2uawOGH-FbcPCOpxYq-6" source="b8-BjnEewdxaXj9wa9ja-5">
          <mxGeometry relative="1" as="geometry">
            <mxPoint x="540" y="408.74" as="targetPoint" />
          </mxGeometry>
        </mxCell>
        <mxCell id="b8-BjnEewdxaXj9wa9ja-5" value="&lt;font style=&quot;font-size: 7px;&quot;&gt;Notification Service&lt;/font&gt;" style="shape=hexagon;perimeter=hexagonPerimeter2;whiteSpace=wrap;html=1;fixedSize=1;rounded=0;glass=0;comic=0;strokeColor=#003366;fontSize=6;movableLabel=1;dashed=1;" vertex="1" parent="8O2uawOGH-FbcPCOpxYq-6">
          <mxGeometry x="569.7" y="383.74" width="60" height="50" as="geometry" />
        </mxCell>
      </root>
    </mxGraphModel>
  </diagram>
  <diagram id="Ge2bavP1_a55OJwV18n2" name="Hub Startup">
    <mxGraphModel dx="1536" dy="886" grid="1" gridSize="10" guides="1" tooltips="1" connect="1" arrows="1" fold="1" page="1" pageScale="1" pageWidth="1169" pageHeight="827" math="0" shadow="0">
      <root>
        <mxCell id="0" />
        <mxCell id="1" parent="0" />
        <mxCell id="ECyo40IWbUTGJfoEcILR-13" style="edgeStyle=orthogonalEdgeStyle;rounded=0;orthogonalLoop=1;jettySize=auto;html=1;entryX=0.5;entryY=0;entryDx=0;entryDy=0;fontSize=10;" parent="1" source="ECyo40IWbUTGJfoEcILR-1" target="ECyo40IWbUTGJfoEcILR-4" edge="1">
          <mxGeometry relative="1" as="geometry" />
        </mxCell>
        <mxCell id="ECyo40IWbUTGJfoEcILR-1" value="Launcher" style="rounded=0;whiteSpace=wrap;html=1;fontSize=10;" parent="1" vertex="1">
          <mxGeometry x="320" y="50" width="80" height="40" as="geometry" />
        </mxCell>
        <mxCell id="ECyo40IWbUTGJfoEcILR-12" style="edgeStyle=orthogonalEdgeStyle;rounded=0;orthogonalLoop=1;jettySize=auto;html=1;entryX=0;entryY=0.5;entryDx=0;entryDy=0;fontSize=10;" parent="1" source="ECyo40IWbUTGJfoEcILR-3" target="ECyo40IWbUTGJfoEcILR-7" edge="1">
          <mxGeometry relative="1" as="geometry" />
        </mxCell>
        <mxCell id="ECyo40IWbUTGJfoEcILR-44" style="edgeStyle=orthogonalEdgeStyle;rounded=0;orthogonalLoop=1;jettySize=auto;html=1;entryX=0.5;entryY=0;entryDx=0;entryDy=0;fontSize=10;" parent="1" source="ECyo40IWbUTGJfoEcILR-3" target="ECyo40IWbUTGJfoEcILR-6" edge="1">
          <mxGeometry relative="1" as="geometry" />
        </mxCell>
        <mxCell id="ECyo40IWbUTGJfoEcILR-3" value="Setup Config" style="rounded=0;whiteSpace=wrap;html=1;fontSize=10;" parent="1" vertex="1">
          <mxGeometry x="320" y="200" width="80" height="40" as="geometry" />
        </mxCell>
        <mxCell id="ECyo40IWbUTGJfoEcILR-45" style="edgeStyle=orthogonalEdgeStyle;rounded=0;orthogonalLoop=1;jettySize=auto;html=1;entryX=0.5;entryY=0;entryDx=0;entryDy=0;fontSize=10;" parent="1" source="ECyo40IWbUTGJfoEcILR-4" target="ECyo40IWbUTGJfoEcILR-3" edge="1">
          <mxGeometry relative="1" as="geometry" />
        </mxCell>
        <mxCell id="ECyo40IWbUTGJfoEcILR-4" value="List of services" style="rounded=0;whiteSpace=wrap;html=1;fontSize=10;" parent="1" vertex="1">
          <mxGeometry x="320" y="120" width="80" height="40" as="geometry" />
        </mxCell>
        <mxCell id="ECyo40IWbUTGJfoEcILR-40" style="edgeStyle=orthogonalEdgeStyle;rounded=0;orthogonalLoop=1;jettySize=auto;html=1;entryX=0;entryY=0.5;entryDx=0;entryDy=0;fontSize=10;" parent="1" source="ECyo40IWbUTGJfoEcILR-5" target="ECyo40IWbUTGJfoEcILR-15" edge="1">
          <mxGeometry relative="1" as="geometry" />
        </mxCell>
        <mxCell id="ECyo40IWbUTGJfoEcILR-5" value="Application Services" style="rounded=0;whiteSpace=wrap;html=1;fontSize=10;" parent="1" vertex="1">
          <mxGeometry x="320" y="350" width="80" height="40" as="geometry" />
        </mxCell>
        <mxCell id="ECyo40IWbUTGJfoEcILR-29" style="edgeStyle=orthogonalEdgeStyle;rounded=0;orthogonalLoop=1;jettySize=auto;html=1;entryX=1;entryY=0.5;entryDx=0;entryDy=0;fontSize=10;" parent="1" source="ECyo40IWbUTGJfoEcILR-6" target="ECyo40IWbUTGJfoEcILR-27" edge="1">
          <mxGeometry relative="1" as="geometry">
            <mxPoint x="280" y="300" as="targetPoint" />
          </mxGeometry>
        </mxCell>
        <mxCell id="ECyo40IWbUTGJfoEcILR-30" style="edgeStyle=orthogonalEdgeStyle;rounded=0;orthogonalLoop=1;jettySize=auto;html=1;entryX=0.5;entryY=0;entryDx=0;entryDy=0;fontSize=10;" parent="1" source="ECyo40IWbUTGJfoEcILR-6" target="ECyo40IWbUTGJfoEcILR-5" edge="1">
          <mxGeometry relative="1" as="geometry" />
        </mxCell>
        <mxCell id="ECyo40IWbUTGJfoEcILR-6" value="Setup external services" style="rounded=0;whiteSpace=wrap;html=1;fontSize=10;" parent="1" vertex="1">
          <mxGeometry x="320" y="280" width="80" height="40" as="geometry" />
        </mxCell>
        <mxCell id="ECyo40IWbUTGJfoEcILR-7" value="State Management Config" style="rounded=0;whiteSpace=wrap;html=1;fontSize=9;" parent="1" vertex="1">
          <mxGeometry x="480" y="206" width="80" height="30" as="geometry" />
        </mxCell>
        <mxCell id="ECyo40IWbUTGJfoEcILR-8" value="Auth Config" style="rounded=0;whiteSpace=wrap;html=1;fontSize=9;" parent="1" vertex="1">
          <mxGeometry x="480" y="236" width="80" height="30" as="geometry" />
        </mxCell>
        <mxCell id="ECyo40IWbUTGJfoEcILR-9" value="Logging Config" style="rounded=0;whiteSpace=wrap;html=1;fontSize=9;" parent="1" vertex="1">
          <mxGeometry x="560" y="236" width="80" height="30" as="geometry" />
        </mxCell>
        <mxCell id="ECyo40IWbUTGJfoEcILR-10" value="Retry Config" style="rounded=0;whiteSpace=wrap;html=1;fontSize=9;" parent="1" vertex="1">
          <mxGeometry x="480" y="266" width="80" height="30" as="geometry" />
        </mxCell>
        <mxCell id="ECyo40IWbUTGJfoEcILR-11" value="Rate Limit Config" style="rounded=0;whiteSpace=wrap;html=1;fontSize=9;" parent="1" vertex="1">
          <mxGeometry x="560" y="266" width="80" height="30" as="geometry" />
        </mxCell>
        <mxCell id="ECyo40IWbUTGJfoEcILR-15" value="TDStore" style="rounded=0;whiteSpace=wrap;html=1;fontSize=10;" parent="1" vertex="1">
          <mxGeometry x="480" y="360" width="80" height="30" as="geometry" />
        </mxCell>
        <mxCell id="ECyo40IWbUTGJfoEcILR-16" value="HistoryStore" style="rounded=0;whiteSpace=wrap;html=1;fontSize=10;" parent="1" vertex="1">
          <mxGeometry x="480" y="390" width="80" height="30" as="geometry" />
        </mxCell>
        <mxCell id="ECyo40IWbUTGJfoEcILR-25" style="edgeStyle=orthogonalEdgeStyle;rounded=0;orthogonalLoop=1;jettySize=auto;html=1;entryX=0;entryY=0.5;entryDx=0;entryDy=0;fontSize=10;" parent="1" source="ECyo40IWbUTGJfoEcILR-17" target="ECyo40IWbUTGJfoEcILR-18" edge="1">
          <mxGeometry relative="1" as="geometry" />
        </mxCell>
        <mxCell id="ECyo40IWbUTGJfoEcILR-17" value="Protocol Adapters" style="rounded=0;whiteSpace=wrap;html=1;fontSize=10;" parent="1" vertex="1">
          <mxGeometry x="480" y="420" width="80" height="30" as="geometry" />
        </mxCell>
        <mxCell id="ECyo40IWbUTGJfoEcILR-18" value="ZWave" style="rounded=0;whiteSpace=wrap;html=1;fontSize=9;" parent="1" vertex="1">
          <mxGeometry x="600" y="425" width="80" height="20" as="geometry" />
        </mxCell>
        <mxCell id="ECyo40IWbUTGJfoEcILR-19" value="1-Wire" style="rounded=0;whiteSpace=wrap;html=1;fontSize=9;" parent="1" vertex="1">
          <mxGeometry x="600" y="445" width="80" height="20" as="geometry" />
        </mxCell>
        <mxCell id="ECyo40IWbUTGJfoEcILR-20" value="Insteon" style="rounded=0;whiteSpace=wrap;html=1;fontSize=9;" parent="1" vertex="1">
          <mxGeometry x="600" y="465" width="80" height="20" as="geometry" />
        </mxCell>
        <mxCell id="ECyo40IWbUTGJfoEcILR-21" value="Weather" style="rounded=0;whiteSpace=wrap;html=1;fontSize=9;" parent="1" vertex="1">
          <mxGeometry x="680" y="465" width="80" height="20" as="geometry" />
        </mxCell>
        <mxCell id="ECyo40IWbUTGJfoEcILR-22" value="IPCam" style="rounded=0;whiteSpace=wrap;html=1;fontSize=9;" parent="1" vertex="1">
          <mxGeometry x="680" y="485" width="80" height="20" as="geometry" />
        </mxCell>
        <mxCell id="ECyo40IWbUTGJfoEcILR-23" value="Wallpaper" style="rounded=0;whiteSpace=wrap;html=1;fontSize=10;" parent="1" vertex="1">
          <mxGeometry x="190" y="490" width="90" height="20" as="geometry" />
        </mxCell>
        <mxCell id="ECyo40IWbUTGJfoEcILR-24" value="Dashboard" style="rounded=0;whiteSpace=wrap;html=1;fontSize=10;" parent="1" vertex="1">
          <mxGeometry x="480" y="450" width="80" height="30" as="geometry" />
        </mxCell>
        <mxCell id="ECyo40IWbUTGJfoEcILR-27" value="MongoDB" style="rounded=0;whiteSpace=wrap;html=1;fontSize=10;" parent="1" vertex="1">
          <mxGeometry x="200" y="285" width="80" height="30" as="geometry" />
        </mxCell>
        <mxCell id="ECyo40IWbUTGJfoEcILR-28" value="Mosquitto" style="rounded=0;whiteSpace=wrap;html=1;fontSize=10;" parent="1" vertex="1">
          <mxGeometry x="200" y="315" width="80" height="30" as="geometry" />
        </mxCell>
        <mxCell id="ECyo40IWbUTGJfoEcILR-33" value="Provisioning Service" style="rounded=0;whiteSpace=wrap;html=1;fontSize=10;" parent="1" vertex="1">
          <mxGeometry x="480" y="480" width="80" height="30" as="geometry" />
        </mxCell>
        <mxCell id="ECyo40IWbUTGJfoEcILR-34" value="NodeMonitor" style="rounded=0;whiteSpace=wrap;html=1;fontSize=9;" parent="1" vertex="1">
          <mxGeometry x="680" y="505" width="80" height="20" as="geometry" />
        </mxCell>
        <mxCell id="ECyo40IWbUTGJfoEcILR-35" value="Email" style="rounded=0;whiteSpace=wrap;html=1;fontSize=9;" parent="1" vertex="1">
          <mxGeometry x="680" y="425" width="80" height="20" as="geometry" />
        </mxCell>
        <mxCell id="ECyo40IWbUTGJfoEcILR-36" value="SMS/Text" style="rounded=0;whiteSpace=wrap;html=1;fontSize=9;" parent="1" vertex="1">
          <mxGeometry x="680" y="445" width="80" height="20" as="geometry" />
        </mxCell>
        <mxCell id="ECyo40IWbUTGJfoEcILR-37" value="Rules Engine" style="rounded=0;whiteSpace=wrap;html=1;fontSize=10;" parent="1" vertex="1">
          <mxGeometry x="190" y="510" width="90" height="20" as="geometry" />
        </mxCell>
        <mxCell id="ECyo40IWbUTGJfoEcILR-39" value="Location Services" style="rounded=0;whiteSpace=wrap;html=1;fontSize=10;" parent="1" vertex="1">
          <mxGeometry x="480" y="510" width="80" height="30" as="geometry" />
        </mxCell>
        <mxCell id="ECyo40IWbUTGJfoEcILR-42" style="edgeStyle=orthogonalEdgeStyle;rounded=0;orthogonalLoop=1;jettySize=auto;html=1;fontSize=10;" parent="1" source="ECyo40IWbUTGJfoEcILR-41" target="ECyo40IWbUTGJfoEcILR-23" edge="1">
          <mxGeometry relative="1" as="geometry" />
        </mxCell>
        <mxCell id="ECyo40IWbUTGJfoEcILR-65" style="edgeStyle=orthogonalEdgeStyle;rounded=0;orthogonalLoop=1;jettySize=auto;html=1;entryX=0.5;entryY=0;entryDx=0;entryDy=0;fontSize=10;" parent="1" source="ECyo40IWbUTGJfoEcILR-41" target="ECyo40IWbUTGJfoEcILR-64" edge="1">
          <mxGeometry relative="1" as="geometry" />
        </mxCell>
        <mxCell id="ECyo40IWbUTGJfoEcILR-41" value="Enrichment Services" style="rounded=0;whiteSpace=wrap;html=1;fontSize=10;" parent="1" vertex="1">
          <mxGeometry x="320" y="480" width="80" height="40" as="geometry" />
        </mxCell>
        <mxCell id="ECyo40IWbUTGJfoEcILR-46" value="Bindings Config" style="rounded=0;whiteSpace=wrap;html=1;fontSize=9;" parent="1" vertex="1">
          <mxGeometry x="560" y="206" width="80" height="30" as="geometry" />
        </mxCell>
        <mxCell id="ECyo40IWbUTGJfoEcILR-47" value="CoAP" style="rounded=0;whiteSpace=wrap;html=1;fontSize=9;" parent="1" vertex="1">
          <mxGeometry x="600" y="485" width="80" height="20" as="geometry" />
        </mxCell>
        <mxCell id="ECyo40IWbUTGJfoEcILR-48" value="ZigBee" style="rounded=0;whiteSpace=wrap;html=1;fontSize=9;" parent="1" vertex="1">
          <mxGeometry x="600" y="505" width="80" height="20" as="geometry" />
        </mxCell>
        <mxCell id="ECyo40IWbUTGJfoEcILR-49" value="LoRa" style="rounded=0;whiteSpace=wrap;html=1;fontSize=9;" parent="1" vertex="1">
          <mxGeometry x="600" y="525" width="80" height="20" as="geometry" />
        </mxCell>
        <mxCell id="ECyo40IWbUTGJfoEcILR-50" value="Bluetooth Monitor" style="rounded=0;whiteSpace=wrap;html=1;fontSize=9;" parent="1" vertex="1">
          <mxGeometry x="680" y="525" width="80" height="20" as="geometry" />
        </mxCell>
        <mxCell id="ECyo40IWbUTGJfoEcILR-51" value="Wifi Monitor" style="rounded=0;whiteSpace=wrap;html=1;fontSize=9;" parent="1" vertex="1">
          <mxGeometry x="680" y="545" width="80" height="20" as="geometry" />
        </mxCell>
        <mxCell id="ECyo40IWbUTGJfoEcILR-52" value="SNMP" style="rounded=0;whiteSpace=wrap;html=1;fontSize=9;" parent="1" vertex="1">
          <mxGeometry x="760" y="425" width="80" height="20" as="geometry" />
        </mxCell>
        <mxCell id="ECyo40IWbUTGJfoEcILR-53" value="UPnP" style="rounded=0;whiteSpace=wrap;html=1;fontSize=9;" parent="1" vertex="1">
          <mxGeometry x="760" y="445" width="80" height="20" as="geometry" />
        </mxCell>
        <mxCell id="ECyo40IWbUTGJfoEcILR-54" value="mDNS" style="rounded=0;whiteSpace=wrap;html=1;fontSize=9;" parent="1" vertex="1">
          <mxGeometry x="760" y="465" width="80" height="20" as="geometry" />
        </mxCell>
        <mxCell id="ECyo40IWbUTGJfoEcILR-55" value="Denon audio control" style="rounded=0;whiteSpace=wrap;html=1;fontSize=9;" parent="1" vertex="1">
          <mxGeometry x="110" y="600" width="80" height="20" as="geometry" />
        </mxCell>
        <mxCell id="ECyo40IWbUTGJfoEcILR-56" value="Philips Hue" style="rounded=0;whiteSpace=wrap;html=1;fontSize=9;" parent="1" vertex="1">
          <mxGeometry x="760" y="505" width="80" height="20" as="geometry" />
        </mxCell>
        <mxCell id="ECyo40IWbUTGJfoEcILR-57" value="SMB Storage mon" style="rounded=0;whiteSpace=wrap;html=1;fontSize=9;" parent="1" vertex="1">
          <mxGeometry x="760" y="485" width="80" height="20" as="geometry" />
        </mxCell>
        <mxCell id="ECyo40IWbUTGJfoEcILR-58" value="Camera Motion Detection" style="rounded=0;whiteSpace=wrap;html=1;fontSize=9;" parent="1" vertex="1">
          <mxGeometry x="190" y="600" width="90" height="30" as="geometry" />
        </mxCell>
        <mxCell id="ECyo40IWbUTGJfoEcILR-59" value="Camera Image Recogition" style="rounded=0;whiteSpace=wrap;html=1;fontSize=9;" parent="1" vertex="1">
          <mxGeometry x="190" y="630" width="90" height="30" as="geometry" />
        </mxCell>
        <mxCell id="ECyo40IWbUTGJfoEcILR-60" value="Camera Recorder" style="rounded=0;whiteSpace=wrap;html=1;fontSize=9;" parent="1" vertex="1">
          <mxGeometry x="190" y="660" width="90" height="30" as="geometry" />
        </mxCell>
        <mxCell id="ECyo40IWbUTGJfoEcILR-61" value="Notification Engine" style="rounded=0;whiteSpace=wrap;html=1;fontSize=10;" parent="1" vertex="1">
          <mxGeometry x="190" y="530" width="90" height="20" as="geometry" />
        </mxCell>
        <mxCell id="ECyo40IWbUTGJfoEcILR-62" value="Voice Recognition" style="rounded=0;whiteSpace=wrap;html=1;fontSize=9;" parent="1" vertex="1">
          <mxGeometry x="190" y="690" width="90" height="25" as="geometry" />
        </mxCell>
        <mxCell id="ECyo40IWbUTGJfoEcILR-63" value="Speech To Text" style="rounded=0;whiteSpace=wrap;html=1;fontSize=9;" parent="1" vertex="1">
          <mxGeometry x="190" y="715" width="90" height="25" as="geometry" />
        </mxCell>
        <mxCell id="ECyo40IWbUTGJfoEcILR-70" style="edgeStyle=orthogonalEdgeStyle;rounded=0;orthogonalLoop=1;jettySize=auto;html=1;entryX=1;entryY=0.5;entryDx=0;entryDy=0;fontSize=10;" parent="1" source="ECyo40IWbUTGJfoEcILR-64" target="ECyo40IWbUTGJfoEcILR-58" edge="1">
          <mxGeometry relative="1" as="geometry" />
        </mxCell>
        <mxCell id="ECyo40IWbUTGJfoEcILR-64" value="Audio/Video Services" style="rounded=0;whiteSpace=wrap;html=1;fontSize=10;" parent="1" vertex="1">
          <mxGeometry x="320" y="595" width="80" height="40" as="geometry" />
        </mxCell>
        <mxCell id="ECyo40IWbUTGJfoEcILR-67" value="Smart TV control" style="rounded=0;whiteSpace=wrap;html=1;fontSize=9;" parent="1" vertex="1">
          <mxGeometry x="110" y="620" width="80" height="20" as="geometry" />
        </mxCell>
        <mxCell id="ECyo40IWbUTGJfoEcILR-68" value="Text to Speech" style="rounded=0;whiteSpace=wrap;html=1;fontSize=9;" parent="1" vertex="1">
          <mxGeometry x="190" y="740" width="90" height="25" as="geometry" />
        </mxCell>
        <mxCell id="ECyo40IWbUTGJfoEcILR-69" value="Audio sink director" style="rounded=0;whiteSpace=wrap;html=1;fontSize=9;" parent="1" vertex="1">
          <mxGeometry x="190" y="765" width="90" height="25" as="geometry" />
        </mxCell>
        <mxCell id="ECyo40IWbUTGJfoEcILR-71" value="Audio source director" style="rounded=0;whiteSpace=wrap;html=1;fontSize=9;" parent="1" vertex="1">
          <mxGeometry x="190" y="790" width="90" height="25" as="geometry" />
        </mxCell>
        <mxCell id="ECyo40IWbUTGJfoEcILR-74" value="NFC" style="rounded=0;whiteSpace=wrap;html=1;fontSize=9;" parent="1" vertex="1">
          <mxGeometry x="600" y="545" width="80" height="20" as="geometry" />
        </mxCell>
        <mxCell id="ECyo40IWbUTGJfoEcILR-79" style="edgeStyle=orthogonalEdgeStyle;rounded=0;orthogonalLoop=1;jettySize=auto;html=1;entryX=1;entryY=0.25;entryDx=0;entryDy=0;fontSize=9;" parent="1" source="ECyo40IWbUTGJfoEcILR-75" target="ECyo40IWbUTGJfoEcILR-77" edge="1">
          <mxGeometry relative="1" as="geometry" />
        </mxCell>
        <mxCell id="ECyo40IWbUTGJfoEcILR-75" value="Bindings" style="rounded=0;whiteSpace=wrap;html=1;fontSize=10;" parent="1" vertex="1">
          <mxGeometry x="320" y="410" width="80" height="40" as="geometry" />
        </mxCell>
        <mxCell id="ECyo40IWbUTGJfoEcILR-76" value="Integration 1" style="rounded=0;whiteSpace=wrap;html=1;fontSize=10;" parent="1" vertex="1">
          <mxGeometry x="190" y="405" width="90" height="20" as="geometry" />
        </mxCell>
        <mxCell id="ECyo40IWbUTGJfoEcILR-77" value="Integration 2" style="rounded=0;whiteSpace=wrap;html=1;fontSize=10;" parent="1" vertex="1">
          <mxGeometry x="190" y="425" width="90" height="20" as="geometry" />
        </mxCell>
        <mxCell id="ECyo40IWbUTGJfoEcILR-78" value="Integration 3" style="rounded=0;whiteSpace=wrap;html=1;fontSize=10;" parent="1" vertex="1">
          <mxGeometry x="190" y="445" width="90" height="20" as="geometry" />
        </mxCell>
        <mxCell id="ECyo40IWbUTGJfoEcILR-81" value="Can protocol adapters be implemented as bindings?" style="shape=note;size=15;align=left;spacingLeft=10;html=1;whiteSpace=wrap;labelBackgroundColor=#FFFFCC;fontSize=9;fillColor=#FFFFCC;" parent="1" vertex="1">
          <mxGeometry x="645" y="385" width="150" height="40" as="geometry" />
        </mxCell>
        <mxCell id="vmn7wHRQL3HjVCHf9MmP-1" value="Text" style="text;html=1;strokeColor=none;fillColor=none;align=center;verticalAlign=middle;whiteSpace=wrap;rounded=0;" parent="1" vertex="1">
          <mxGeometry x="510" y="420" width="60" height="30" as="geometry" />
        </mxCell>
        <mxCell id="vmn7wHRQL3HjVCHf9MmP-2" value="Starting The Hive Hub" style="text;html=1;strokeColor=none;fillColor=none;align=center;verticalAlign=middle;whiteSpace=wrap;rounded=0;" parent="1" vertex="1">
          <mxGeometry x="270" y="10" width="180" height="30" as="geometry" />
        </mxCell>
      </root>
    </mxGraphModel>
  </diagram>
</mxfile>
